#Created using Ray Dream Designer(R) 5

v 0.00000002 -1.5 0
v -0.62500005 -1 0
v -0.31250005 -1 0.625
v 0.31250005 -1 0.625
v 0.62500005 -1 0
v 0.31249994 -1 -0.625
v -0.3125 -1 -0.625
v -0.62500005 1 0
v -0.31250005 1 0.625
v 0.31250005 1 0.625
v 0.62500005 1 0
v 0.31249994 1 -0.625
v -0.3125 1 -0.625
v 0.00000002 1.5 0

vn 0.00000000 -1 -0.00000002
vn -0.89442718 -0.44721361 -0.00000004
vn -0.46747723 -0.47861385 0.74323201
vn 0.46747720 -0.47861379 0.74323201
vn 0.89442718 -0.44721364 -0.00000008
vn 0.46747720 -0.47861379 -0.74323213
vn -0.46747720 -0.47861379 -0.74323201
vn -0.89442718 0.44721361 -0.00000004
vn -0.46747723 0.47861385 0.74323201
vn 0.46747720 0.47861379 0.74323201
vn 0.89442718 0.44721361 -0.00000008
vn 0.46747720 0.47861379 -0.74323213
vn -0.46747720 0.47861379 -0.74323201
vn 0.00000000 1 -0.00000006

vt 0.5 0.00000001
vt 0 0.17780770
vt 0.17620816 0.19413746
vt 0.32379180 0.19413746
vt 0.5 0.17780770
vt 0.67620819 0.19413746
vt 0.82379180 0.19413746
vt 0 0.82219231
vt 0.17620816 0.80586254
vt 0.32379180 0.80586254
vt 0.5 0.82219231
vt 0.67620819 0.80586254
vt 0.82379180 0.80586254
vt 0.5 1



g crystal62
f 3/3/3 2/2/2 1/1/1
f 4/4/4 3/3/3 1/1/1
f 5/5/5 4/4/4 1/1/1
f 6/6/6 5/5/5 1/1/1
f 7/7/7 6/6/6 1/1/1
f 1/1/1 2/2/2 7/7/7
f 3/3/3 9/9/9 8/8/8 2/2/2
f 4/4/4 10/10/10 9/9/9 3/3/3
f 5/5/5 11/11/11 10/10/10 4/4/4
f 6/6/6 12/12/12 11/11/11 5/5/5
f 7/7/7 13/13/13 12/12/12 6/6/6
f 2/2/2 8/8/8 13/13/13 7/7/7
f 9/9/9 14/14/14 8/8/8
f 10/10/10 14/14/14 9/9/9
f 11/11/11 14/14/14 10/10/10
f 12/12/12 14/14/14 11/11/11
f 13/13/13 14/14/14 12/12/12
f 8/8/8 14/14/14 13/13/13

