#Created using Ray Dream Designer(R) 5

v -0.61874997 0.66448640 -0.00000001
v -0.43752235 0.66448640 0.43752223
v 0.00000008 0.66448640 0.61874985
v 0.43752229 0.66448640 0.43752223
v 0.61874997 0.66448640 -0.00000001
v 0.43752229 0.66448640 -0.43752229
v -0.00000003 0.66448640 -0.61874997
v -0.43752226 0.66448640 -0.43752232
v -0.76819807 0.56440734 0.31819802
v -0.31819802 0.56440734 0.76819801
v 0.31819811 0.56440734 0.76819795
v 0.76819807 0.56440734 0.31819802
v 0.76819807 0.56440734 -0.31819808
v 0.31819802 0.56440734 -0.76819813
v -0.31819808 0.56440734 -0.76819813
v -0.76819807 0.56440734 -0.31819808
v -1.15296411 0.40799748 0.00000011
v -1.06519985 0.40799748 0.43437996
v -0.81526869 0.40799748 0.80262911
v -0.44122022 0.40799748 1.04868531
v 0 0.40799748 1.13508892
v 0.44122034 0.40799748 1.04868531
v 0.81526899 0.40799748 0.80262911
v 1.06519985 0.40799748 0.43437996
v 1.15296411 0.40799748 0.00000029
v 1.06520032 0.40799748 -0.43437936
v 0.81526923 0.40799748 -0.80262887
v 0.44122070 0.40799748 -1.04868507
v 0 0.40799748 -1.13508892
v -0.44122040 0.40799748 -1.04868507
v -0.81526905 0.40799748 -0.80262863
v -1.06520009 0.40799748 -0.43437901
v -1.15296411 0.27848529 0.00000011
v -1.06519985 0.27848529 0.43437996
v -0.81526869 0.27848529 0.80262911
v -0.44122022 0.27848529 1.04868531
v -0.00000000 0.27848529 1.13508892
v 0.44122034 0.27848529 1.04868531
v 0.81526899 0.27848529 0.80262911
v 1.06519985 0.27848529 0.43437996
v 1.15296411 0.27848529 0.00000029
v 1.06520032 0.27848529 -0.43437936
v 0.81526923 0.27848529 -0.80262887
v 0.44122070 0.27848529 -1.04868507
v -0.00000000 0.27848529 -1.13508892
v -0.44122040 0.27848529 -1.04868507
v -0.81526905 0.27848529 -0.80262863
v -1.06520009 0.27848529 -0.43437901
v 0.00000011 -0.66448640 0.00000011
v -0.35950493 -0.35909897 0.14660321
v -0.14891178 -0.35909897 0.35393127
v 0.14891190 -0.35909897 0.35393127
v 0.35950505 -0.35909897 0.14660321
v 0.35950520 -0.35909897 -0.14660303
v 0.14891201 -0.35909897 -0.35393121
v -0.14891186 -0.35909897 -0.35393121
v -0.35950499 -0.35909897 -0.14660291

vn -0.25596427 0.96668624 -0.00000000
vn -0.22990396 0.94566822 0.22990399
vn 0.00000003 0.95818197 0.28615972
vn 0.16878962 0.97109228 0.16878965
vn 0.32236912 0.94661402 0
vn 0.18255999 0.96609717 -0.18255998
vn -0.00000000 0.94468337 -0.32798367
vn -0.17405645 0.96923100 -0.17405644
vn -0.38737380 0.90741342 0.16291864
vn -0.16159462 0.90380924 0.39625242
vn 0.16159459 0.90380924 0.39625233
vn 0.38737380 0.90741342 0.16291856
vn 0.38737374 0.90741342 -0.16291850
vn 0.16159465 0.90380924 -0.39625248
vn -0.16159479 0.90380918 -0.39625254
vn -0.38737380 0.90741330 -0.16291865
vn -0.84719657 0.53112560 -0.01278912
vn -0.78720915 0.52895915 0.31702354
vn -0.60618382 0.52758473 0.59514325
vn -0.33372214 0.52207022 0.78490269
vn -0.01221022 0.52393537 0.85167044
vn 0.31100919 0.52207010 0.79417634
vn 0.58840781 0.52760332 0.61270779
vn 0.77737617 0.52895903 0.34042406
vn 0.84719657 0.53112560 0.01278957
vn 0.78720933 0.52895927 -0.31702288
vn 0.60618406 0.52758473 -0.59514302
vn 0.33372226 0.52207010 -0.78490269
vn 0.01221018 0.52393525 -0.85167056
vn -0.31100958 0.52206993 -0.79417628
vn -0.58840817 0.52760320 -0.61270773
vn -0.77737635 0.52895897 -0.34042385
vn -0.90516090 -0.42490056 0.01197079
vn -0.83057039 -0.42329093 0.36190825
vn -0.62771433 -0.42316031 0.65338355
vn -0.33219477 -0.42082267 0.84412962
vn 0.01146845 -0.42143735 0.90678495
vn 0.35354974 -0.42082279 0.83541053
vn 0.64439976 -0.42315974 0.63693386
vn 0.83978128 -0.42329105 0.33998826
vn 0.90516090 -0.42490050 -0.01197020
vn 0.83057063 -0.42329093 -0.36190763
vn 0.62771451 -0.42316034 -0.65338337
vn 0.33219489 -0.42082267 -0.84412962
vn -0.01146855 -0.42143732 -0.90678495
vn -0.35355010 -0.42082279 -0.83541041
vn -0.64440000 -0.42315965 -0.63693368
vn -0.83978146 -0.42329105 -0.33998799
vn 0.00000004 -1 0.00000017
vn -0.56596302 -0.78943151 0.23766298
vn -0.23378300 -0.78606516 0.57222986
vn 0.23378300 -0.78606516 0.57222998
vn 0.56596308 -0.78943145 0.23766301
vn 0.56596314 -0.78943157 -0.23766267
vn 0.23378303 -0.78606528 -0.57222980
vn -0.23378317 -0.78606528 -0.57222974
vn -0.56596314 -0.78943157 -0.23766277

vt 1 0.76134020
vt 0.12499997 0.76134020
vt 0.25 0.76134026
vt 0.375 0.76134026
vt 0.5 0.76134020
vt 0.625 0.76134020
vt 0.75 0.76134020
vt 0.875 0.76134020
vt 0.06249999 0.68982350
vt 0.1875 0.68982350
vt 0.3125 0.68982350
vt 0.4375 0.68982350
vt 0.5625 0.68982350
vt 0.6875 0.68982350
vt 0.8125 0.68982344
vt 0.9375 0.68982350
vt 0.00000001 0.60826253
vt 0.06162567 0.60848879
vt 0.12375664 0.60904085
vt 0.18661591 0.60960143
vt 0.25 0.60983622
vt 0.31338408 0.60960143
vt 0.37624335 0.60904085
vt 0.43837431 0.60848879
vt 0.49999994 0.60826253
vt 0.56162559 0.60848873
vt 0.62375658 0.60904085
vt 0.68661582 0.60960143
vt 0.75 0.60983622
vt 0.81338411 0.60960149
vt 0.87624341 0.60904085
vt 0.93837445 0.60848879
vt 0.00000001 0.57543921
vt 0.06162567 0.57560342
vt 0.12375664 0.57600426
vt 0.18661591 0.57641160
vt 0.25 0.57658219
vt 0.31338408 0.57641160
vt 0.37624335 0.57600426
vt 0.43837431 0.57560342
vt 0.49999994 0.57543921
vt 0.56162559 0.57560336
vt 0.62375658 0.57600426
vt 0.68661582 0.57641160
vt 0.75 0.57658219
vt 0.81338411 0.57641160
vt 0.87624341 0.57600426
vt 0.93837445 0.57560342
vt 0.375 0.00000009
vt 0.06162565 0.26240876
vt 0.18661592 0.26065498
vt 0.31338411 0.26065501
vt 0.43837434 0.26240879
vt 0.56162559 0.26240885
vt 0.68661582 0.26065498
vt 0.81338411 0.26065498
vt 0.93837445 0.26240873


g diamond1
f 1/1/1 9/9/9 2/2/2
f 2/2/2 10/10/10 3/3/3
f 3/3/3 11/11/11 4/4/4
f 4/4/4 12/12/12 5/5/5
f 5/5/5 13/13/13 6/6/6
f 6/6/6 14/14/14 7/7/7
f 7/7/7 15/15/15 8/8/8
f 8/8/8 16/16/16 1/1/1
f 1/1/1 2/2/2 3/3/3 4/4/4 5/5/5 6/6/6 7/7/7 8/8/8
f 13/13/13 5/5/5 12/12/12 25/25/25
f 15/15/15 7/7/7 14/14/14 29/29/29
f 10/10/10 2/2/2 9/9/9 19/19/19
f 9/9/9 1/1/1 16/16/16 17/17/17
f 11/11/11 3/3/3 10/10/10 21/21/21
f 12/12/12 4/4/4 11/11/11 23/23/23
f 14/14/14 6/6/6 13/13/13 27/27/27
f 16/16/16 8/8/8 15/15/15 31/31/31
f 17/17/17 18/18/18 9/9/9
f 18/18/18 19/19/19 9/9/9
f 19/19/19 20/20/20 10/10/10
f 20/20/20 21/21/21 10/10/10
f 21/21/21 22/22/22 11/11/11
f 22/22/22 23/23/23 11/11/11
f 23/23/23 24/24/24 12/12/12
f 24/24/24 25/25/25 12/12/12
f 25/25/25 26/26/26 13/13/13
f 26/26/26 27/27/27 13/13/13
f 27/27/27 28/28/28 14/14/14
f 28/28/28 29/29/29 14/14/14
f 29/29/29 30/30/30 15/15/15
f 30/30/30 31/31/31 15/15/15
f 31/31/31 32/32/32 16/16/16
f 32/32/32 17/17/17 16/16/16
f 17/17/17 33/33/33 34/34/34 18/18/18
f 18/18/18 34/34/34 35/35/35 19/19/19
f 19/19/19 35/35/35 36/36/36 20/20/20
f 20/20/20 36/36/36 37/37/37 21/21/21
f 21/21/21 37/37/37 38/38/38 22/22/22
f 22/22/22 38/38/38 39/39/39 23/23/23
f 23/23/23 39/39/39 40/40/40 24/24/24
f 24/24/24 40/40/40 41/41/41 25/25/25
f 25/25/25 41/41/41 42/42/42 26/26/26
f 26/26/26 42/42/42 43/43/43 27/27/27
f 27/27/27 43/43/43 44/44/44 28/28/28
f 28/28/28 44/44/44 45/45/45 29/29/29
f 29/29/29 45/45/45 46/46/46 30/30/30
f 30/30/30 46/46/46 47/47/47 31/31/31
f 31/31/31 47/47/47 48/48/48 32/32/32
f 32/32/32 48/48/48 33/33/33 17/17/17
f 33/33/33 48/48/48 57/57/57
f 50/50/50 34/34/34 33/33/33
f 35/35/35 34/34/34 50/50/50
f 51/51/51 36/36/36 35/35/35
f 57/57/57 48/48/48 47/47/47
f 47/47/47 46/46/46 56/56/56
f 56/56/56 46/46/46 45/45/45
f 45/45/45 44/44/44 55/55/55
f 55/55/55 44/44/44 43/43/43
f 43/43/43 42/42/42 54/54/54
f 54/54/54 42/42/42 41/41/41
f 41/41/41 40/40/40 53/53/53
f 53/53/53 40/40/40 39/39/39
f 39/39/39 38/38/38 52/52/52
f 52/52/52 38/38/38 37/37/37
f 37/37/37 36/36/36 51/51/51
f 49/49/49 50/50/50 33/33/33 57/57/57
f 51/51/51 35/35/35 50/50/50 49/49/49
f 52/52/52 37/37/37 51/51/51 49/49/49
f 53/53/53 39/39/39 52/52/52 49/49/49
f 54/54/54 41/41/41 53/53/53 49/49/49
f 55/55/55 43/43/43 54/54/54 49/49/49
f 56/56/56 45/45/45 55/55/55 49/49/49
f 57/57/57 47/47/47 56/56/56 49/49/49

