#Created using Ray Dream Designer(R) 5

v -0.87499952 -2.72143459 -0.70274847
v -0.84720933 -3.09359645 0.65622824
v 0.02779085 -2.41087865 1.12143051
v 0.875 -3.09359645 0.64725577
v 0.84721052 -2.72143459 -0.71172046
v -0.02778851 -2.41087865 -1.12143051
v -0.875 3.09359645 -0.70274859
v -0.84720957 2.60535430 0.65622794
v 0.02779065 2.29479885 1.12143027
v 0.87499988 2.60535430 0.64725559
v 0.84721016 3.09359645 -0.71172052
v -0.02778896 2.29479885 -1.12143051

vn -0.67885679 -0.43360432 -0.59257125
vn -0.56921982 -0.59446293 0.56798112
vn 0.00880419 -0.21462842 0.97665613
vn 0.58209800 -0.59780448 0.55117297
vn 0.66718786 -0.43812236 -0.60241931
vn -0.00873287 -0.31603059 -0.94870883
vn -0.58597904 0.56806361 -0.57786875
vn -0.67744690 0.42332088 0.60155230
vn 0.00889940 0.34002083 0.94037580
vn 0.69056868 0.42119956 0.58796763
vn 0.57247918 0.56462794 -0.59452748
vn -0.00865124 0.16869507 -0.98563033

vt 0.89230722 0.12450154
vt 0.10489030 0.10614603
vt 0.25394329 0.13862457
vt 0.39863580 0.10768165
vt 0.61120218 0.12292096
vt 0.75394296 0.13862457
vt 0.89230728 0.88922619
vt 0.10489025 0.87578701
vt 0.25394326 0.85527259
vt 0.39863580 0.87404137
vt 0.61120223 0.89066332
vt 0.75394302 0.85527253


g monoclinic
f 2/2/2 8/8/8 7/7/7 1/1/1
f 3/3/3 9/9/9 8/8/8 2/2/2
f 4/4/4 10/10/10 9/9/9 3/3/3
f 5/5/5 11/11/11 10/10/10 4/4/4
f 6/6/6 12/12/12 11/11/11 5/5/5
f 1/1/1 7/7/7 12/12/12 6/6/6
f 8/8/8 9/9/9 10/10/10
f 11/11/11 12/12/12 7/7/7
f 7/7/7 8/8/8 10/10/10 11/11/11
f 4/4/4 3/3/3 2/2/2
f 1/1/1 6/6/6 5/5/5
f 5/5/5 4/4/4 2/2/2 1/1/1

