#Created using Ray Dream Designer(R) 5

v -1.5 0.00000006 -0.00000007
v 0.00000002 0.00000006 1.5
v 1.5 0.00000006 -0.00000007
v 0.00000002 0.00000006 -1.5
v 0.00000002 1.50000023 -0.00000007
v 0.00000002 -1.50000023 -0.00000007
v -1.06066012 0.00000006 1.06066012
v 0.00000002 1.06066036 1.06066012
v -1.06066012 1.06066036 -0.00000007
v 1.06066000 0.00000006 1.06066012
v 1.06066000 1.06066036 -0.00000007
v 1.06066000 0.00000006 -1.06066012
v 0.00000002 1.06066036 -1.06066012
v -1.06066012 0.00000006 -1.06066012
v 0.00000002 -1.06066036 1.06066012
v -1.06066012 -1.06066036 -0.00000007
v 1.06066000 -1.06066036 -0.00000007
v 0.00000002 -1.06066036 -1.06066012

vn -1 0.00000001 -0.00000003
vn 0.00000001 0.00000000 1
vn 1 0.00000002 -0.00000004
vn 0.00000001 0.00000000 -1
vn 0.00000001 1 -0.00000004
vn 0.00000001 -1 -0.00000004
vn -0.70710676 0.00000003 0.70710676
vn 0.00000006 0.70710676 0.70710676
vn -0.70710676 0.70710676 -0.00000005
vn 0.70710676 0.00000003 0.70710676
vn 0.70710682 0.70710676 -0.00000005
vn 0.70710676 0.00000003 -0.70710676
vn 0.00000005 0.70710676 -0.70710682
vn -0.70710676 0.00000001 -0.70710676
vn 0.00000006 -0.70710676 0.70710676
vn -0.70710682 -0.70710676 -0.00000003
vn 0.70710682 -0.70710676 -0.00000008
vn 0.00000003 -0.70710676 -0.70710682

vt 1 0.5
vt 0.25 0.5
vt 0.5 0.5
vt 0.75 0.5
vt 0.69153505 0.99999994
vt 0.69153505 0.00000003
vt 0.125 0.5
vt 0.25 0.75
vt 1 0.75
vt 0.37499997 0.5
vt 0.5 0.75000005
vt 0.625 0.5
vt 0.75 0.75
vt 0.875 0.5
vt 0.25 0.24999997
vt 1 0.24999997
vt 0.5 0.24999995
vt 0.75 0.24999997


g cubicgem32
f 7/7/7 2/2/2 8/8/8
f 10/10/10 3/3/3 11/11/11
f 12/12/12 4/4/4 13/13/13
f 14/14/14 1/1/1 9/9/9
f 15/15/15 2/2/2 7/7/7
f 17/17/17 3/3/3 10/10/10
f 18/18/18 4/4/4 12/12/12
f 16/16/16 1/1/1 14/14/14
f 8/8/8 5/5/5 9/9/9
f 11/11/11 5/5/5 8/8/8
f 13/13/13 5/5/5 11/11/11
f 9/9/9 5/5/5 13/13/13
f 16/16/16 6/6/6 15/15/15
f 15/15/15 6/6/6 17/17/17
f 17/17/17 6/6/6 18/18/18
f 18/18/18 6/6/6 16/16/16
f 9/9/9 1/1/1 7/7/7
f 8/8/8 2/2/2 10/10/10
f 11/11/11 3/3/3 12/12/12
f 13/13/13 4/4/4 14/14/14
f 7/7/7 1/1/1 16/16/16
f 10/10/10 2/2/2 15/15/15
f 12/12/12 3/3/3 17/17/17
f 14/14/14 4/4/4 18/18/18
f 7/7/7 8/8/8 9/9/9
f 10/10/10 11/11/11 8/8/8
f 12/12/12 13/13/13 11/11/11
f 14/14/14 9/9/9 13/13/13
f 16/16/16 15/15/15 7/7/7
f 15/15/15 17/17/17 10/10/10
f 17/17/17 18/18/18 12/12/12
f 18/18/18 16/16/16 14/14/14

