#Created using Ray Dream Designer(R) 5

v -0.62500005 0.625 0
v -0.3125 0.625 0.625
v 0.31250011 0.625 0.625
v 0.62500005 0.625 0
v 0.3125 0.625 -0.625
v -0.31249994 0.625 -0.625
v -0.78125005 0.375 0
v -0.390625 0.375 0.78125
v 0.39062514 0.375 0.78125
v 0.78125005 0.375 0
v 0.390625 0.375 -0.78125
v -0.39062494 0.375 -0.78125
v -0.78125005 0.25 0
v -0.390625 0.25 0.78125
v 0.39062514 0.25 0.78125
v 0.78125005 0.25 0
v 0.390625 0.25 -0.78125
v -0.39062494 0.25 -0.78125
v 0 -0.75 0

vn -0.62001574 0.78458940 -0.00000002
vn -0.31316173 0.80943793 0.49672925
vn 0.31316173 0.80943793 0.49672916
vn 0.62001574 0.78458940 -0.00000004
vn 0.31316173 0.80943793 -0.49672925
vn -0.31316170 0.80943793 -0.49672925
vn -0.95596033 0.29349398 -0.00105359
vn -0.34029236 0.29647275 0.89235919
vn 0.33870270 0.30232366 0.89099991
vn 0.95596033 0.29349398 0.00105349
vn 0.34029236 0.29647275 -0.89235919
vn -0.33870264 0.30232366 -0.89099997
vn -0.94329160 -0.33196523 -0.00000002
vn -0.49455392 -0.36111161 0.79057884
vn 0.49455395 -0.36111161 0.79057872
vn 0.94329166 -0.33196523 -0.00000006
vn 0.49455392 -0.36111161 -0.79057884
vn -0.49455389 -0.36111152 -0.79057884
vn 0.00000000 -1 -0.00000008

vt 0 0.76514613
vt 0.17620818 0.74741196
vt 0.32379183 0.74741196
vt 0.5 0.76514613
vt 0.67620819 0.74741196
vt 0.82379180 0.74741196
vt 0 0.66249346
vt 0.17620818 0.64780741
vt 0.32379183 0.64780741
vt 0.5 0.66249346
vt 0.67620819 0.64780741
vt 0.82379180 0.64780741
vt 0 0.62111890
vt 0.17620818 0.60936516
vt 0.32379183 0.60936516
vt 0.5 0.62111890
vt 0.67620819 0.60936516
vt 0.82379180 0.60936516
vt 0 0.00000001


g gem61
f 1/1/1 7/7/7 8/8/8 2/2/2
f 2/2/2 8/8/8 9/9/9 3/3/3
f 3/3/3 9/9/9 10/10/10 4/4/4
f 4/4/4 10/10/10 11/11/11 5/5/5
f 5/5/5 11/11/11 12/12/12 6/6/6
f 6/6/6 12/12/12 7/7/7 1/1/1
f 1/1/1 2/2/2 3/3/3 4/4/4 5/5/5 6/6/6
f 7/7/7 13/13/13 14/14/14 8/8/8
f 8/8/8 14/14/14 15/15/15 9/9/9
f 9/9/9 15/15/15 16/16/16 10/10/10
f 10/10/10 16/16/16 17/17/17 11/11/11
f 11/11/11 17/17/17 18/18/18 12/12/12
f 12/12/12 18/18/18 13/13/13 7/7/7
f 13/13/13 19/19/19 14/14/14
f 14/14/14 19/19/19 15/15/15
f 15/15/15 19/19/19 16/16/16
f 16/16/16 19/19/19 17/17/17
f 17/17/17 19/19/19 18/18/18
f 18/18/18 19/19/19 13/13/13

