# file generated by Fractal Design Detailer
g
v -2.95908 -0.49378  0.00000
v -2.95908  0.49378  0.00000
v -2.63842 -1.42784  0.00000
v -2.63842  1.42784  0.00000
v -2.03184 -2.20717  0.00000
v -2.03184  2.20717  0.00000
v -1.20509  2.74732  0.00000
v -1.20509 -2.74732  0.00000
v -0.24774  2.98975  0.00000
v -0.24774 -2.98975  0.00000
v  0.00000  0.00000  6.00000
v  0.73646  2.90820  0.00000
v  0.73646 -2.90820  0.00000
v  1.64084  2.51150  0.00000
v  1.64085 -2.51150  0.00000
v  2.36742  1.84264  0.00000
v  2.36742 -1.84264  0.00000
v  2.83745  0.97410  0.00000
v  2.83745 -0.97409  0.00000
v  3.00000  0.00000  0.00000
vt  0.00000  0.50000
vt  0.01316  0.00000
vt  0.03947  0.00000
vt  0.05263  0.50000
vt  0.06579  0.00000
vt  0.09211  0.00000
vt  0.10526  0.50000
vt  0.11842  0.00000
vt  0.14474  0.00000
vt  0.15789  0.50000
vt  0.17105  0.00000
vt  0.19737  0.00000
vt  0.21053  0.50000
vt  0.22368  0.00000
vt  0.25000  0.00000
vt  0.26316  0.50000
vt  0.27632  0.00000
vt  0.30263  0.00000
vt  0.31579  0.50000
vt  0.32895  0.00000
vt  0.34139  0.72936
vt  0.34572  0.81137
vt  0.35425  0.64958
vt  0.35526  0.00000
vt  0.36676  0.88674
vt  0.36842  0.50000
vt  0.38158  0.00000
vt  0.38291  0.58068
vt  0.40225  0.94729
vt  0.40789  0.00000
vt  0.42105  0.50000
vt  0.42425  0.53013
vt  0.43421  0.00000
vt  0.44832  0.98645
vt  0.46053  0.00000
vt  0.47368  0.50000
vt  0.47380  0.50341
vt  0.48684  0.00000
vt  0.50000  1.00000
vt  0.52620  0.50341
vt  0.52632  0.50000
vt  0.55168  0.98645
vt  0.57575  0.53013
vt  0.57895  0.50000
vt  0.59775  0.94729
vt  0.61709  0.58068
vt  0.63158  0.50000
vt  0.63324  0.88674
vt  0.64575  0.64958
vt  0.65428  0.81137
vt  0.65861  0.72936
vt  0.68421  0.50000
vt  0.73684  0.50000
vt  0.78947  0.50000
vt  0.84211  0.50000
vt  0.89474  0.50000
vt  0.94737  0.50000
vt  1.00000  0.50000
vn -0.89137  0.07386  0.44721
vn -0.88223 -0.14722  0.44721
vn -0.88223  0.14722  0.44721
vn -0.86706  0.21957  0.44721
vn -0.81909  0.35929  0.44721
vn -0.78663 -0.42570  0.44721
vn -0.78663  0.42570  0.44721
vn -0.74878  0.48921  0.44721
vn -0.65805  0.60578  0.44721
vn -0.60578 -0.65805  0.44721
vn -0.60578  0.65805  0.44721
vn -0.54937  0.70583  0.44721
vn -0.42570  0.78663  0.44721
vn -0.35929  0.81909  0.44721
vn -0.35929 -0.81909  0.44721
vn -0.29042  0.84596  0.44721
vn -0.28343 -0.04730 -0.95783
vn -0.28343  0.04730 -0.95783
vn -0.25271 -0.13676 -0.95783
vn -0.25271  0.13676 -0.95783
vn -0.19462 -0.21141 -0.95783
vn -0.19462  0.21141 -0.95783
vn -0.14722  0.88223  0.44721
vn -0.11543  0.26315 -0.95783
vn -0.11543 -0.26315 -0.95783
vn -0.07386  0.89137  0.44721
vn -0.07386 -0.89137  0.44721
vn -0.02373  0.28637 -0.95783
vn -0.02373 -0.28637 -0.95783
vn  0.00000  0.89443  0.44721
vn  0.07054  0.27856 -0.95783
vn  0.07054 -0.27856 -0.95783
vn  0.14722  0.88223  0.44721
vn  0.15716  0.24056 -0.95783
vn  0.15716 -0.24056 -0.95783
vn  0.21957  0.86706  0.44721
vn  0.21957 -0.86706  0.44721
vn  0.22676  0.17649 -0.95783
vn  0.22676 -0.17649 -0.95783
vn  0.27178  0.09330 -0.95783
vn  0.27178 -0.09330 -0.95783
vn  0.28735  0.00000 -0.95783
vn  0.29042  0.84596  0.44721
vn  0.42570  0.78663  0.44721
vn  0.48921  0.74878  0.44721
vn  0.48921 -0.74878  0.44721
vn  0.54937  0.70583  0.44721
vn  0.65805  0.60578  0.44721
vn  0.70583  0.54937  0.44721
vn  0.70583 -0.54937  0.44721
vn  0.74878  0.48921  0.44721
vn  0.81909  0.35929  0.44721
vn  0.84596  0.29042  0.44721
vn  0.84597 -0.29042  0.44721
vn  0.86706  0.21957  0.44721
vn  0.89137  0.07386  0.44721
vn  0.89443  0.00000  0.44721
g 1
f 20/1/57 18/4/53 11/2/56
f 18/4/53 16/7/49 11/3/55
f 16/7/49 14/10/45 11/5/52
f 14/10/45 12/13/36 11/6/51
f 12/13/36 9/16/26 11/8/48
f 9/16/26 7/19/14 11/9/47
f 7/19/14 6/26/11 11/11/44
f 6/26/11 4/31/7 11/12/43
f 4/31/7 2/36/3 11/14/33
f 2/36/3 1/41/2 11/15/30
f 1/41/2 3/44/6 11/17/23
f 3/44/6 5/47/10 11/18/16
f 5/47/10 8/52/15 11/20/13
f 8/52/15 10/53/27 11/24/12
f 10/53/27 13/54/37 11/27/9
f 13/54/37 15/55/46 11/30/8
f 15/55/46 17/56/50 11/33/5
f 17/56/50 19/57/54 11/35/4
f 19/57/54 20/58/57 11/38/1
f 20/39/42 16/45/38 18/42/40
f 20/39/42 14/48/34 16/45/38
f 20/39/42 12/50/31 14/48/34
f 20/39/42 9/51/28 12/50/31
f 20/39/42 7/49/24 9/51/28
f 20/39/42 6/46/22 7/49/24
f 20/39/42 4/43/20 6/46/22
f 20/39/42 2/40/18 4/43/20
f 20/39/42 1/37/17 2/40/18
f 20/39/42 3/32/19 1/37/17
f 20/39/42 5/28/21 3/32/19
f 20/39/42 8/23/25 5/28/21
f 20/39/42 10/21/29 8/23/25
f 20/39/42 13/22/32 10/21/29
f 20/39/42 15/25/35 13/22/32
f 20/39/42 17/29/39 15/25/35
f 20/39/42 19/34/41 17/29/39

