# file generated by Fractal Design Detailer
v  0.00000  0.00000  0.00000
v  0.00000  0.00000  1.00000
v  0.00000  3.00000  0.00000
v  0.00000  3.00000  1.00000
v  4.00000  0.00000  0.00000
v  4.00000  0.00000  1.00000
v  4.00000  3.00000  0.00000
v  4.00000  3.00000  1.00000
vt  0.00000  0.42857
vt  0.00000  0.57143
vt  0.21429  0.00000
vt  0.21429  0.42857
vt  0.21429  0.57143
vt  0.21429  1.00000
vt  0.50000  0.00000
vt  0.50000  0.42857
vt  0.50000  0.57143
vt  0.50000  1.00000
vt  0.71429  0.42857
vt  0.71429  0.57143
vt  1.00000  0.42857
vt  1.00000  0.57143
vn -0.92057 -0.27617 -0.27617
vn -0.92057 -0.27617  0.27617
vn -0.92057  0.27617 -0.27617
vn -0.92057  0.27617  0.27617
vn -0.27617 -0.92057 -0.27617
vn -0.27617 -0.92057  0.27617
vn -0.27617 -0.27617 -0.92057
vn -0.27617 -0.27617  0.92057
vn -0.27617  0.27617 -0.92057
vn -0.27617  0.27617  0.92057
vn -0.27617  0.92057 -0.27617
vn -0.27617  0.92057  0.27617
vn  0.27617 -0.92057 -0.27617
vn  0.27617 -0.92057  0.27617
vn  0.27617 -0.27617 -0.92057
vn  0.27617 -0.27617  0.92057
vn  0.27617  0.27617 -0.92057
vn  0.27617  0.27617  0.92057
vn  0.27617  0.92057 -0.27617
vn  0.27617  0.92057  0.27617
vn  0.92057 -0.27617 -0.27617
vn  0.92057 -0.27617  0.27617
vn  0.92057  0.27617 -0.27617
vn  0.92057  0.27617  0.27617

f 7/12/23 8/11/24 6/8/22
f 7/12/23 6/8/22 5/9/21
f 1/5/1 2/4/2 4/1/4
f 1/5/1 4/1/4 3/2/3
f 3/14/11 4/13/12 8/11/20
f 3/14/11 8/11/20 7/12/19
f 5/9/13 6/8/14 2/4/6
f 5/9/13 2/4/6 1/5/5
f 6/8/16 8/7/18 4/3/10
f 6/8/16 4/3/10 2/4/8
f 7/10/17 5/9/15 1/5/7
f 7/10/17 1/5/7 3/6/9

