# file generated by Fractal Design Detailer
v -1.50000  0.00000  0.00000
v -1.50000  0.00000  6.00000
v -1.38582 -0.57402  0.00000
v -1.38582 -0.57402  6.00000
v -1.38582  0.57403  0.00000
v -1.38582  0.57403  6.00000
v -1.06066 -1.06066  0.00000
v -1.06066 -1.06066  6.00000
v -1.06066  1.06066  0.00000
v -1.06066  1.06066  6.00000
v -0.57403 -1.38582  0.00000
v -0.57403 -1.38582  6.00000
v -0.57403  1.38582  0.00000
v -0.57403  1.38582  6.00000
v -0.00000  1.50000  0.00000
v -0.00000  1.50000  6.00000
v  0.00000 -1.50000  0.00000
v  0.00000 -1.50000  6.00000
v  0.57403  1.38582  0.00000
v  0.57403  1.38582  6.00000
v  0.57403 -1.38582  0.00000
v  0.57403 -1.38582  6.00000
v  1.06066  1.06066  0.00000
v  1.06066  1.06066  6.00000
v  1.06066 -1.06066  0.00000
v  1.06066 -1.06066  6.00000
v  1.38582  0.57403  0.00000
v  1.38582  0.57403  6.00000
v  1.38582 -0.57402  0.00000
v  1.38582 -0.57402  6.00000
v  1.50000  0.00000  0.00000
v  1.50000  0.00000  6.00000
vt  0.00000  0.25000
vt  0.00000  0.75000
vt  0.06250  0.25000
vt  0.06250  0.75000
vt  0.12500  0.25000
vt  0.12500  0.75000
vt  0.18750  0.25000
vt  0.18750  0.75000
vt  0.25000  0.25000
vt  0.25000  0.75000
vt  0.31250  0.25000
vt  0.31250  0.75000
vt  0.34085  0.87500
vt  0.34085  0.12500
vt  0.35296  0.07716
vt  0.35296  0.17284
vt  0.35296  0.82716
vt  0.35296  0.92284
vt  0.37500  0.25000
vt  0.37500  0.75000
vt  0.38746  0.03661
vt  0.38746  0.21339
vt  0.38746  0.78661
vt  0.38746  0.96339
vt  0.43750  0.25000
vt  0.43750  0.75000
vt  0.43909  0.00952
vt  0.43909  0.24048
vt  0.43909  0.75952
vt  0.43909  0.99048
vt  0.50000  0.25000
vt  0.50000  0.75000
vt  0.50000  0.00000
vt  0.50000  0.75000
vt  0.50000  1.00000
vt  0.56091  0.00952
vt  0.56091  0.24048
vt  0.56091  0.99048
vt  0.56091  0.75952
vt  0.56250  0.25000
vt  0.56250  0.75000
vt  0.61254  0.03661
vt  0.61254  0.21339
vt  0.61254  0.78661
vt  0.61254  0.96339
vt  0.62500  0.25000
vt  0.62500  0.75000
vt  0.64704  0.07716
vt  0.64704  0.17284
vt  0.64704  0.82716
vt  0.64704  0.92284
vt  0.65915  0.12500
vt  0.65915  0.87500
vt  0.68750  0.25000
vt  0.68750  0.75000
vt  0.75000  0.25000
vt  0.75000  0.75000
vt  0.81250  0.25000
vt  0.81250  0.75000
vt  0.87500  0.25000
vt  0.87500  0.75000
vt  0.93750  0.25000
vt  0.93750  0.75000
vt  1.00000  0.25000
vt  1.00000  0.75000
vn -0.98894  0.00000 -0.14834
vn -0.98894  0.00000  0.14834
vn -0.91366 -0.37845 -0.14834
vn -0.91366 -0.37845  0.14834
vn -0.91366  0.37845 -0.14834
vn -0.91366  0.37845  0.14834
vn -0.69928 -0.69928 -0.14834
vn -0.69928 -0.69928  0.14834
vn -0.69928  0.69928 -0.14834
vn -0.69928  0.69928  0.14834
vn -0.37845 -0.91366 -0.14834
vn -0.37845 -0.91366  0.14834
vn -0.37845  0.91366 -0.14834
vn -0.37845  0.91366  0.14834
vn -0.28735  0.00000 -0.95783
vn -0.28735  0.00000  0.95783
vn -0.26547 -0.10996 -0.95783
vn -0.26547 -0.10996  0.95783
vn -0.26547  0.10996 -0.95783
vn -0.26547  0.10996  0.95783
vn -0.20319 -0.20319 -0.95783
vn -0.20319 -0.20319  0.95783
vn -0.20319  0.20319 -0.95783
vn -0.20319  0.20319  0.95783
vn -0.10996 -0.26547 -0.95783
vn -0.10996 -0.26547  0.95783
vn -0.10996  0.26547 -0.95783
vn -0.10996  0.26547  0.95783
vn -0.00000  0.98894 -0.14834
vn -0.00000  0.98894  0.14834
vn -0.00000  0.28735 -0.95783
vn -0.00000  0.28735  0.95783
vn  0.00000 -0.28735 -0.95783
vn  0.00000 -0.28735  0.95783
vn  0.00000 -0.98894 -0.14834
vn  0.00000 -0.98894  0.14834
vn  0.10996  0.26547 -0.95783
vn  0.10996  0.26547  0.95783
vn  0.10996 -0.26547 -0.95783
vn  0.10996 -0.26547  0.95783
vn  0.20319  0.20319 -0.95783
vn  0.20319  0.20319  0.95783
vn  0.20319 -0.20319 -0.95783
vn  0.20319 -0.20319  0.95783
vn  0.26547  0.10996 -0.95783
vn  0.26547  0.10996  0.95783
vn  0.26547 -0.10996 -0.95783
vn  0.26547 -0.10996  0.95783
vn  0.28735  0.00000 -0.95783
vn  0.28735  0.00000  0.95783
vn  0.37845  0.91366 -0.14834
vn  0.37845  0.91366  0.14834
vn  0.37845 -0.91366 -0.14834
vn  0.37845 -0.91366  0.14834
vn  0.69928  0.69928 -0.14834
vn  0.69928  0.69928  0.14834
vn  0.69928 -0.69928 -0.14834
vn  0.69928 -0.69928  0.14834
vn  0.91366  0.37845 -0.14834
vn  0.91366  0.37845  0.14834
vn  0.91366 -0.37845 -0.14834
vn  0.91366 -0.37845  0.14834
vn  0.98894  0.00000 -0.14834
vn  0.98894  0.00000  0.14834
g 1
f 31/2/63 27/4/59 28/3/60
f 31/2/63 28/3/60 32/1/64
f 27/4/59 23/6/55 24/5/56
f 27/4/59 24/5/56 28/3/60
f 23/6/55 19/8/51 20/7/52
f 23/6/55 20/7/52 24/5/56
f 19/8/51 15/10/29 16/9/30
f 19/8/51 16/9/30 20/7/52
f 15/10/29 13/12/13 14/11/14
f 15/10/29 14/11/14 16/9/30
f 13/12/13 9/20/9 10/19/10
f 13/12/13 10/19/10 14/11/14
f 9/20/9 5/26/5 6/25/6
f 9/20/9 6/25/6 10/19/10
f 5/26/5 1/32/1 2/31/2
f 5/26/5 2/31/2 6/25/6
f 1/32/1 3/41/3 4/40/4
f 1/32/1 4/40/4 2/31/2
f 3/41/3 7/47/7 8/46/8
f 3/41/3 8/46/8 4/40/4
f 7/47/7 11/55/11 12/54/12
f 7/47/7 12/54/12 8/46/8
f 11/55/11 17/57/35 18/56/36
f 11/55/11 18/56/36 12/54/12
f 17/57/35 21/59/53 22/58/54
f 17/57/35 22/58/54 18/56/36
f 21/59/53 25/61/57 26/60/58
f 21/59/53 26/60/58 22/58/54
f 25/61/57 29/63/61 30/62/62
f 25/61/57 30/62/62 26/60/58
f 29/63/61 31/65/63 32/64/64
f 29/63/61 32/64/64 30/62/62
f 32/33/50 28/27/46 24/21/42
f 32/33/50 24/21/42 20/15/38
f 32/33/50 20/15/38 16/14/32
f 32/33/50 16/14/32 14/16/28
f 32/33/50 14/16/28 10/22/24
f 32/33/50 10/22/24 6/28/20
f 32/33/50 6/28/20 2/31/16
f 32/33/50 2/31/16 4/37/18
f 32/33/50 4/37/18 8/43/22
f 32/33/50 8/43/22 12/49/26
f 32/33/50 12/49/26 18/52/34
f 32/33/50 18/52/34 22/48/40
f 32/33/50 22/48/40 26/42/44
f 32/33/50 26/42/44 30/36/48
f 31/35/49 23/45/41 27/38/45
f 31/35/49 19/51/37 23/45/41
f 31/35/49 15/53/31 19/51/37
f 31/35/49 13/50/27 15/53/31
f 31/35/49 9/44/23 13/50/27
f 31/35/49 5/39/19 9/44/23
f 31/35/49 1/34/15 5/39/19
f 31/35/49 3/29/17 1/34/15
f 31/35/49 7/23/21 3/29/17
f 31/35/49 11/17/25 7/23/21
f 31/35/49 17/13/33 11/17/25
f 31/35/49 21/18/39 17/13/33
f 31/35/49 25/24/43 21/18/39
f 31/35/49 29/30/47 25/24/43

